<svg width="137" height="49" viewBox="0 0 137 49" fill="none" xmlns="http://www.w3.org/2000/svg">
<rect x="0.5" y="1" width="136" height="47" rx="7.5" stroke="#151515"/>
<g clip-path="url(#clip0_1_14570)">
<path d="M72.6797 24.707C72.6797 24.7773 72.5742 26.8516 74.8594 27.9414C74.4375 29.2422 72.9609 32.125 71.2383 32.125C70.2539 32.125 69.6914 31.4922 68.5664 31.4922C67.4062 31.4922 66.7734 32.125 65.8945 32.125C64.207 32.1953 62.5898 29.0312 62.1328 27.7305C61.7812 26.7461 61.6406 25.7969 61.6406 24.8828C61.6406 21.7539 63.7148 20.2422 65.6836 20.207C66.6328 20.207 67.8281 20.875 68.3555 20.875C68.8477 20.875 70.2188 20.0664 71.4844 20.1719C72.7852 20.2773 73.7695 20.7695 74.4375 21.7188C73.2773 22.457 72.6797 23.4062 72.6797 24.707ZM70.7109 18.9414C70.0078 19.75 69.1641 20.207 68.25 20.1367C68.1797 19.1875 68.5312 18.3086 69.1641 17.6055C69.7266 16.9727 70.7109 16.4453 71.5547 16.375C71.5547 16.7617 71.6602 17.8164 70.7109 18.9414Z" fill="black"/>
</g>
<defs>
<clipPath id="clip0_1_14570">
<rect x="53.5" y="4" width="30" height="41" rx="15" fill="white"/>
</clipPath>
</defs>
</svg>
