<svg width= "32px" height= "32px" top= "32px" left= "24px"
 xmlns="http://www.w3.org/2000/svg">
<path d="M1.35951 1.56238H30.6395C30.7277 1.56835 30.8107 1.6061 30.8733 1.66861C30.9358 1.73112 30.9735 1.81416 30.9795 1.90236V31.1823C30.9735 31.2705 30.9358 31.3536 30.8733 31.4161C30.8107 31.4786 30.7277 31.5163 30.6395 31.5223H1.35951C1.27131 31.5163 1.18827 31.4786 1.12576 31.4161C1.06325 31.3536 1.02551 31.2705 1.01953 31.1823V1.90236C1.06201 1.73244 1.18959 1.56238 1.35951 1.56238Z" fill="black"/>
<path d="M28.8548 32.4998H3.14477C2.73153 32.5008 2.32218 32.4201 1.94021 32.2624C1.55825 32.1047 1.2112 31.873 0.918991 31.5808C0.626786 31.2886 0.395182 30.9416 0.237476 30.5596C0.0797699 30.1776 -0.000931224 29.7683 8.80637e-06 29.3551V3.64507C-0.00097026 3.23183 0.0796972 2.82246 0.237367 2.44048C0.395037 2.05851 0.626605 1.71144 0.918783 1.41921C1.21096 1.12698 1.55799 0.895335 1.93994 0.737593C2.32189 0.579851 2.73123 0.499107 3.14447 0.500008H28.8545C29.2677 0.499068 29.6771 0.579769 30.059 0.737475C30.441 0.895181 30.788 1.12679 31.0802 1.41899C31.3725 1.7112 31.6041 2.05825 31.7618 2.44021C31.9195 2.82218 32.0002 3.23153 31.9992 3.64477V29.3548C32.0038 29.769 31.9256 30.18 31.7692 30.5635C31.6128 30.9471 31.3813 31.2956 31.0884 31.5886C30.7955 31.8815 30.4471 32.113 30.0635 32.2695C29.68 32.426 29.269 32.5043 28.8548 32.4998ZM3.18695 2.58236C2.54948 2.58236 2.08206 3.09239 2.03958 3.72972V29.4397C2.03895 29.5906 2.0682 29.7401 2.12564 29.8795C2.18307 30.019 2.26757 30.1458 2.37424 30.2524C2.4809 30.3591 2.60764 30.4436 2.74713 30.501C2.88662 30.5585 3.0361 30.5877 3.18695 30.5871H28.8969C29.0456 30.5869 29.1927 30.5567 29.3294 30.4984C29.4662 30.4402 29.5898 30.3549 29.6929 30.2479C29.796 30.1408 29.8765 30.0141 29.9296 29.8752C29.9826 29.7364 30.0072 29.5883 30.0018 29.4397V3.72972C29.9982 3.4338 29.8819 3.1504 29.6766 2.93723C29.4713 2.72406 29.1925 2.59715 28.8969 2.58236H3.18695Z" fill="#0761E2"/>
<path d="M9.60414 11.2636H5.43945V8.79883H16.3611V11.2636H12.1964V23.8851H9.60414V11.2636Z" fill="white"/>
<path d="M26.5601 13.6855L21.5031 21.5049H26.3477V23.9272H17.126L22.183 16.1079H17.466V13.6855H26.5601Z" fill="white"/>
</svg>
