<svg width= "88px" height= "30px" top= "37.31px" left= "68.66px" xmlns="http://www.w3.org/2000/svg">
<path d="M5.93267 5.48607H0.663086V2.38379H14.4744V5.48592H9.20487V21.4646H5.93267V5.48607Z" fill="black"/>
<path d="M27.6054 15.0055C27.6054 18.7877 24.5457 21.8049 20.721 21.8049C16.8963 21.8049 13.8369 18.7877 13.8369 15.0055C13.8369 11.1807 16.8966 8.20605 20.7213 8.20605C24.5885 8.20605 27.6054 11.1807 27.6054 15.0055ZM24.2907 15.0055C24.2907 13.0081 22.9308 11.2659 20.721 11.2659C18.5112 11.2659 17.1513 12.9657 17.1513 15.0055C17.1513 17.0452 18.5112 18.7451 20.721 18.7451C22.9308 18.7451 24.291 17.0453 24.291 15.0055H24.2907Z" fill="black"/>
<path d="M42.9462 15.0055C42.9462 18.7877 39.8865 21.8049 36.0618 21.8049C32.2371 21.8049 29.1777 18.7877 29.1777 15.0055C29.1777 11.1807 32.2374 8.20605 36.0621 8.20605C39.8868 8.20605 42.9462 11.1807 42.9462 15.0055ZM39.6315 15.0055C39.6315 13.0081 38.2716 11.2659 36.0618 11.2659C33.852 11.2659 32.4921 12.9657 32.4921 15.0055C32.4921 17.0452 33.852 18.7451 36.0618 18.7451C38.2716 18.7451 39.6318 17.0453 39.6318 15.0055H39.6315Z" fill="black"/>
<path d="M45.752 0.854492H49.0241V21.4653H45.752V0.854492Z" fill="black"/>
<path d="M63.813 8.54602L57.3966 18.4052H63.5159V21.4649H51.8291L58.2455 11.6057H52.2965V8.54602H63.813Z" fill="black"/>
<path d="M77.3267 8.54602L70.9103 18.4052H77.0296V21.4649H65.3428L71.7591 11.6057H65.8102V8.54602H77.3267Z" fill="black"/>
<path d="M83.2337 0.811593C84.1499 0.811593 85.0455 1.08326 85.8072 1.59225C86.5689 2.10123 87.1627 2.82466 87.5132 3.67107C87.8638 4.51748 87.9556 5.44884 87.7768 6.34738C87.5981 7.24592 87.1569 8.07129 86.5091 8.7191C85.8613 9.36691 85.036 9.80807 84.1374 9.98681C83.2389 10.1655 82.3075 10.0738 81.4611 9.72321C80.6147 9.37262 79.8913 8.77891 79.3823 8.01717C78.8733 7.25542 78.6016 6.35985 78.6016 5.4437C78.5983 4.83447 78.7158 4.23062 78.9474 3.66712C79.179 3.10361 79.5201 2.59164 79.9509 2.16084C80.3817 1.73005 80.8936 1.38897 81.4571 1.15737C82.0207 0.925774 82.6245 0.808245 83.2337 0.811593ZM83.2337 9.14098C83.9649 9.14095 84.6797 8.92409 85.2877 8.51783C85.8957 8.11156 86.3695 7.53414 86.6493 6.85858C86.9291 6.18301 87.0023 5.43965 86.8597 4.72249C86.717 4.00533 86.3649 3.34657 85.8478 2.82953C85.3307 2.31249 84.672 1.96039 83.9548 1.81775C83.2376 1.67511 82.4943 1.74833 81.8187 2.02816C81.1432 2.308 80.5658 2.78187 80.1595 3.38985C79.7533 3.99784 79.5365 4.71264 79.5365 5.44386C79.5332 5.93028 79.6267 6.41249 79.8113 6.86251C79.996 7.31253 80.2682 7.72138 80.6122 8.06534C80.9562 8.40929 81.365 8.6815 81.8151 8.86615C82.2651 9.0508 82.7473 9.14422 83.2337 9.14098ZM81.7889 2.97905H83.3612C84.3386 2.97905 84.9761 3.57404 84.9761 4.46639C84.9761 5.18883 84.5512 5.69917 83.8712 5.91127L85.104 7.78107H84.1268L82.937 5.95419H82.597V7.78107H81.7896V2.9789L81.7889 2.97905ZM83.2762 5.23131C83.8286 5.23131 84.2112 4.97629 84.2112 4.50887C84.2112 4.04146 83.8712 3.78644 83.2762 3.78644H82.597V5.27379H83.277L83.2762 5.23131Z" fill="black"/>
</svg>

