<svg width="137" height="49" viewBox="0 0 137 49" fill="none" xmlns="http://www.w3.org/2000/svg">
<rect x="0.5" y="1" width="136" height="47" rx="7.5" stroke="#151515"/>
<g clip-path="url(#clip0_1_14569)">
<path d="M77.2188 24.25C77.2188 28.6094 74.0195 32.2305 69.8359 32.8633V26.7812H71.875L72.2617 24.25H69.8359V22.6328C69.8359 21.9297 70.1875 21.2617 71.2773 21.2617H72.3672V19.1172C72.3672 19.1172 71.3828 18.9414 70.3984 18.9414C68.4297 18.9414 67.1289 20.1719 67.1289 22.3516V24.25H64.9141V26.7812H67.1289V32.8633C62.9453 32.2305 59.7812 28.6094 59.7812 24.25C59.7812 19.4336 63.6836 15.5312 68.5 15.5312C73.3164 15.5312 77.2188 19.4336 77.2188 24.25Z" fill="black"/>
</g>
<defs>
<clipPath id="clip0_1_14569">
<rect x="51.5" y="4" width="34" height="41" rx="17" fill="white"/>
</clipPath>
</defs>
</svg>
