<svg width="137" height="49" viewBox="0 0 137 49" fill="none" xmlns="http://www.w3.org/2000/svg">
<rect x="0.5" y="1" width="136" height="47" rx="7.5" stroke="#151515"/>
<g clip-path="url(#clip0_1_14571)">
<path d="M75.6367 20.5938C75.6367 20.7695 75.6367 20.9102 75.6367 21.0859C75.6367 25.9727 71.9453 31.5625 65.1602 31.5625C63.0508 31.5625 61.1172 30.9648 59.5 29.9102C59.7812 29.9453 60.0625 29.9805 60.3789 29.9805C62.1016 29.9805 63.6836 29.3828 64.9492 28.3984C63.332 28.3633 61.9609 27.3086 61.5039 25.832C61.75 25.8672 61.9609 25.9023 62.207 25.9023C62.5234 25.9023 62.875 25.832 63.1562 25.7617C61.4688 25.4102 60.2031 23.9336 60.2031 22.1406V22.1055C60.6953 22.3867 61.293 22.5273 61.8906 22.5625C60.8711 21.8945 60.2383 20.7695 60.2383 19.5039C60.2383 18.8008 60.4141 18.168 60.7305 17.6406C62.5586 19.8555 65.3008 21.332 68.3594 21.5078C68.2891 21.2266 68.2539 20.9453 68.2539 20.6641C68.2539 18.625 69.9062 16.9727 71.9453 16.9727C73 16.9727 73.9492 17.3945 74.6523 18.1328C75.4609 17.957 76.2695 17.6406 76.9727 17.2188C76.6914 18.0977 76.1289 18.8008 75.3555 19.2578C76.0938 19.1875 76.832 18.9766 77.4648 18.6953C76.9727 19.4336 76.3398 20.0664 75.6367 20.5938Z" fill="black"/>
</g>
<defs>
<clipPath id="clip0_1_14571">
<rect x="51.5" y="4" width="34" height="41" rx="17" fill="white"/>
</clipPath>
</defs>
</svg>
