<svg width="137" height="49" viewBox="0 0 137 49" fill="none" xmlns="http://www.w3.org/2000/svg">
<rect x="0.5" y="1" width="136" height="47" rx="7.5" stroke="#151515"/>
<g clip-path="url(#clip0_1_14562)">
<path fill-rule="evenodd" clip-rule="evenodd" d="M74.0714 31.7857H62.9286C61.9818 31.7857 61.2143 31.0182 61.2143 30.0714V18.9286C61.2143 17.9818 61.9818 17.2143 62.9286 17.2143H74.0714C75.0182 17.2143 75.7857 17.9818 75.7857 18.9286V30.0714C75.7857 31.0182 75.0182 31.7857 74.0714 31.7857ZM62.9286 33.5C61.035 33.5 59.5 31.965 59.5 30.0714V18.9286C59.5 17.035 61.035 15.5 62.9286 15.5H74.0714C75.965 15.5 77.5 17.035 77.5 18.9286V30.0714C77.5 31.965 75.965 33.5 74.0714 33.5H62.9286Z" fill="#0E0E0E"/>
<path d="M69.0446 22.9744C69.0446 23.0849 69.1342 23.1744 69.2446 23.1744H70.9189C71.0747 23.1744 71.1707 23.3447 71.09 23.478L68.6144 27.5685C68.5337 27.7018 68.6297 27.8721 68.7855 27.8721H73.9452C74.0556 27.8721 74.1452 27.7826 74.1452 27.6721V26.3512C74.1452 26.2407 74.0556 26.1512 73.9452 26.1512H72.0164C71.8605 26.1512 71.7646 25.9806 71.8455 25.8474L74.3857 21.6643C74.4666 21.531 74.3707 21.3605 74.2148 21.3605H69.2446C69.1342 21.3605 69.0446 21.45 69.0446 21.5605V22.9744Z" fill="#0E0E0E"/>
<path d="M62.5693 22.9744C62.5693 23.0849 62.6589 23.1744 62.7693 23.1744H64.2598C64.3703 23.1744 64.4598 23.264 64.4598 23.3744V27.6721C64.4598 27.7826 64.5494 27.8721 64.6598 27.8721H66.3393C66.4498 27.8721 66.5393 27.7826 66.5393 27.6721V23.3744C66.5393 23.264 66.6289 23.1744 66.7393 23.1744H68.2298C68.3403 23.1744 68.4298 23.0849 68.4298 22.9744V21.5605C68.4298 21.45 68.3403 21.3605 68.2298 21.3605H62.7693C62.6589 21.3605 62.5693 21.45 62.5693 21.5605V22.9744Z" fill="#0E0E0E"/>
</g>
<defs>
<clipPath id="clip0_1_14562">
<rect x="51.5" y="7.5" width="34" height="34" rx="17" fill="white"/>
</clipPath>
</defs>
</svg>
